{
	"asset":{
		"generator":"Khronos glTF Blender I/O v4.1.63",
		"version":"2.0"
	},
	"scene":0,
	"scenes":[
		{
			"name":"Scene",
			"nodes":[
				0,
				1
			]
		}
	],
	"nodes":[
		{
			"name":"Plane"
		},
		{
			"mesh":0,
			"name":"Plane.001"
		}
	],
	"materials":[
		{
			"doubleSided":true,
			"name":"Material.001",
			"pbrMetallicRoughness":{
				"baseColorTexture":{
					"index":0
				},
				"metallicFactor":0.75,
				"roughnessFactor":0.9488189220428467
			}
		}
	],
	"meshes":[
		{
			"name":"Plane.001",
			"primitives":[
				{
					"attributes":{
						"POSITION":0,
						"NORMAL":1,
						"TEXCOORD_0":2
					},
					"indices":3,
					"material":0
				}
			]
		}
	],
	"textures":[
		{
			"sampler":0,
			"source":0
		}
	],
	"images":[
		{
			"mimeType":"image/png",
			"name":"Untitled",
			"uri":"Untitled.png"
		}
	],
	"accessors":[
		{
			"bufferView":0,
			"componentType":5126,
			"count":3508,
			"max":[
				2.4047513008117676,
				0.6395924091339111,
				1.4928581714630127
			],
			"min":[
				-2.3571996688842773,
				-0.07264505326747894,
				-1.629111647605896
			],
			"type":"VEC3"
		},
		{
			"bufferView":1,
			"componentType":5126,
			"count":3508,
			"type":"VEC3"
		},
		{
			"bufferView":2,
			"componentType":5126,
			"count":3508,
			"type":"VEC2"
		},
		{
			"bufferView":3,
			"componentType":5123,
			"count":3606,
			"type":"SCALAR"
		}
	],
	"bufferViews":[
		{
			"buffer":0,
			"byteLength":42096,
			"byteOffset":0,
			"target":34962
		},
		{
			"buffer":0,
			"byteLength":42096,
			"byteOffset":42096,
			"target":34962
		},
		{
			"buffer":0,
			"byteLength":28064,
			"byteOffset":84192,
			"target":34962
		},
		{
			"buffer":0,
			"byteLength":7212,
			"byteOffset":112256,
			"target":34963
		}
	],
	"samplers":[
		{
			"magFilter":9729,
			"minFilter":9987
		}
	],
	"buffers":[
		{
			"byteLength":119468,
			"uri":"gun_model.bin"
		}
	]
}
